<svg width="17" height="17" viewBox="0 0 17 17" fill="none" xmlns="http://www.w3.org/2000/svg">
<path fill-rule="evenodd" clip-rule="evenodd" d="M7.5 0.25H9.5V10.3715C9.97997 9.75047 10.5774 9.16323 11.3203 8.66795C12.6273 7.79662 14.325 7.25 16.5 7.25V9.25C14.675 9.25 13.3727 9.70338 12.4297 10.3321C11.4804 10.9649 10.8351 11.8158 10.3944 12.6972C9.95178 13.5825 9.72548 14.4799 9.61139 15.1644C9.55475 15.5043 9.52681 15.7853 9.51308 15.9775C9.50623 16.0734 9.50296 16.1467 9.5014 16.1935C9.50062 16.2169 9.50027 16.2336 9.50011 16.2432L9.5 16.25C9.5 16.2496 9.5 16.25 8.5 16.25C7.5 16.25 7.5 16.2505 7.5 16.2509L7.49989 16.2432C7.49973 16.2336 7.49938 16.2169 7.4986 16.1935C7.49704 16.1467 7.49377 16.0734 7.48692 15.9775C7.47319 15.7853 7.44525 15.5043 7.38861 15.1644C7.27452 14.4799 7.04822 13.5825 6.60557 12.6972C6.16489 11.8158 5.51956 10.9649 4.5703 10.3321C3.6273 9.70338 2.32502 9.25 0.5 9.25V7.25C2.67498 7.25 4.3727 7.79662 5.6797 8.66795C6.42262 9.16323 7.02003 9.75047 7.5 10.3715V0.25Z" fill="#282727"/>
</svg>
